<?xml version="1.0"?>
<svg xmlns="http://www.w3.org/2000/svg" id="Capa_1" enable-background="new 0 0 512 512" height="512px" viewBox="0 0 512 512" width="512px" class=""><g><g><path d="m504.518 203.02c-4.633-2.682-10.342-2.694-14.982-.03l-69.536 39.896v206.227l69.535 39.897c2.312 1.327 4.888 1.989 7.465 1.989 2.597 0 5.193-.673 7.518-2.02 4.631-2.682 7.482-7.629 7.482-12.98v-259.999c0-5.352-2.852-10.298-7.482-12.98z" data-original="#000000" class="active-path" data-old_color="#000000" fill="#FFFFFF"/><circle cx="285" cy="296" r="15" data-original="#000000" class="active-path" data-old_color="#000000" fill="#FFFFFF"/><path d="m90 281h90v30h-90z" data-original="#000000" class="active-path" data-old_color="#000000" fill="#FFFFFF"/><path d="m105 71c-33.084 0-60 26.916-60 60s26.916 60 60 60 60-26.916 60-60-26.916-60-60-60zm0 75c-8.284 0-15-6.716-15-15s6.716-15 15-15 15 6.716 15 15-6.716 15-15 15z" data-original="#000000" class="active-path" data-old_color="#000000" fill="#FFFFFF"/><path d="m255 11c-49.626 0-90 40.374-90 90s40.374 90 90 90 90-40.374 90-90-40.374-90-90-90zm-40 105c-8.284 0-15-6.716-15-15s6.716-15 15-15 15 6.716 15 15-6.716 15-15 15zm40 40c-8.284 0-15-6.716-15-15s6.716-15 15-15 15 6.716 15 15-6.716 15-15 15zm0-80c-8.284 0-15-6.716-15-15s6.716-15 15-15 15 6.716 15 15-6.716 15-15 15zm40 40c-8.284 0-15-6.716-15-15s6.716-15 15-15 15 6.716 15 15-6.716 15-15 15z" data-original="#000000" class="active-path" data-old_color="#000000" fill="#FFFFFF"/><path d="m335 191h-.721c-21.158 18.66-48.917 30-79.279 30s-58.121-11.34-79.278-30h-3.705c-16.49 18.4-40.422 30-67.017 30-25.562 0-48.669-10.713-65.069-27.884-23.021 6.57-39.931 27.782-39.931 52.884v200c0 30.327 24.673 55 55 55h280c30.327 0 55-24.673 55-55v-200c0-30.327-24.673-55-55-55zm-260 150c-8.284 0-15-6.716-15-15v-60c0-8.284 6.716-15 15-15h120c8.284 0 15 6.716 15 15v60c0 8.284-6.716 15-15 15zm240 100h-100c-8.284 0-15-6.716-15-15s6.716-15 15-15h100c8.284 0 15 6.716 15 15s-6.716 15-15 15zm-30-100c-24.813 0-45-20.187-45-45s20.187-45 45-45 45 20.187 45 45-20.187 45-45 45z" data-original="#000000" class="active-path" data-old_color="#000000" fill="#FFFFFF"/></g></g> </svg>
