<?xml version="1.0"?>
<svg xmlns="http://www.w3.org/2000/svg" xmlns:xlink="http://www.w3.org/1999/xlink" version="1.1" id="Capa_1" x="0px" y="0px" viewBox="0 0 475.429 475.429" style="enable-background:new 0 0 475.429 475.429;" xml:space="preserve" width="512px" height="512px"><g><g>
	<g>
		<path d="M306.908,164.571l78.89-86.204c2.121-2.236,2.734-5.507,1.567-8.359c-1.367-2.812-4.189-4.626-7.314-4.702H126.663    c0,0-3.135,0-3.135,0.522v-9.404c13.393-2.134,22.926-14.163,21.943-27.69C145.474,13.067,132.925,0.285,117.259,0    c-16.047-0.01-29.217,12.697-29.78,28.735c0.536,12.512,8.589,23.456,20.375,27.69v411.167c0,4.328,3.509,7.837,7.837,7.837    s7.837-3.509,7.837-7.837V263.837h256.522c3.206,0.209,6.174-1.698,7.314-4.702c1.04-2.864,0.439-6.067-1.567-8.359    L306.908,164.571z" data-original="#000000" class="active-path" data-old_color="#000000" fill="#FFFFFF"/>
	</g>
</g></g> </svg>
