<?xml version="1.0"?>
<svg xmlns="http://www.w3.org/2000/svg" id="Capa_1" enable-background="new 0 0 512 512" height="512px" viewBox="0 0 512 512" width="512px" class="hovered-paths"><g><g><path d="m0 107.715v296.571c0 18.894 15.459 34.353 34.353 34.353h443.294c18.894 0 34.353-15.458 34.353-34.353 0-10.596 0-285.938 0-296.571 0-18.894-15.459-34.353-34.353-34.353h-443.294c-18.894 0-34.353 15.459-34.353 34.353z" fill="#695d67" data-original="#695D67" class=""/><path d="m35.555 404.286v-296.571c0-18.894 15.458-34.353 34.353-34.353h-35.555c-18.894 0-34.353 15.459-34.353 34.353v296.571c0 18.894 15.459 34.353 34.353 34.353h35.555c-18.895-.001-34.353-15.459-34.353-34.353z" fill="#544e55" data-original="#544E55"/><path d="m33.494 107.715v296.57c0 .393.465.859.858.859h413.149c.393 0 .859-.466.859-.859v-296.57c0-.394-.465-.859-.859-.859-5.879 0-405.905 0-413.149 0-.392 0-.858.466-.858.859z" fill="#ff656f" data-original="#FF656F" class="active-path" data-old_color="#ff656f" style="fill:#CF353F"/><path d="m69.049 404.285v-296.57c0-.394.465-.859.858-.859-21.034 0-34.29 0-35.555 0-.393 0-.858.466-.858.859v296.57c0 .393.465.859.858.859h35.555c-.392 0-.858-.466-.858-.859z" fill="#ff4756" data-original="#FF4756"/><path d="m239.907 160.782c-37.136 0-67.52 30.384-67.52 67.52 0 37.136 30.384 67.52 67.52 67.52 37.136 0 67.52-30.384 67.52-67.52 0-37.136-30.384-67.52-67.52-67.52z" fill="#dfebfa" data-original="#DFEBFA"/><path d="m220.806 228.301c0-28.613 18.045-53.2 43.311-62.987-7.526-2.915-15.686-4.532-24.209-4.532-37.136 0-67.52 30.384-67.52 67.52s30.384 67.52 67.52 67.52c8.523 0 16.683-1.617 24.209-4.532-25.266-9.788-43.311-34.376-43.311-62.989z" fill="#b1dbfc" data-original="#B1DBFC"/><path d="m268.199 222.262-38.38-23.117c-4.699-2.83-10.687.554-10.687 6.039v46.235c0 5.485 5.989 8.869 10.687 6.039l38.38-23.117c4.55-2.741 4.55-9.338 0-12.079z" fill="#ff656f" data-original="#FF656F" class="active-path" data-old_color="#ff656f" style="fill:#CF353F"/><path d="m316.827 336.943h-228.357c-7.965 0-14.423 6.457-14.423 14.423 0 7.965 6.457 14.423 14.423 14.423h228.357z" fill="#dfebfa" data-original="#DFEBFA"/><path d="m391.344 336.943h-74.516v28.845h74.516c7.965 0 14.423-6.457 14.423-14.423-.001-7.965-6.458-14.422-14.423-14.422z" fill="#ff4756" data-original="#FF4756"/><g><path d="m316.827 381.412c-4.267 0-7.726-3.459-7.726-7.726v-44.469c0-4.267 3.459-7.726 7.726-7.726s7.726 3.459 7.726 7.726v44.469c.001 4.267-3.459 7.726-7.726 7.726z" fill="#ff7f87" data-original="#FF7F87" class="" style="fill:#911A22" data-old_color="#ff7f87"/></g><g><path d="m476.783 270.379c-4.267 0-7.726-3.459-7.726-7.726v-13.306c0-4.267 3.459-7.726 7.726-7.726s7.726 3.459 7.726 7.726v13.306c0 4.267-3.459 7.726-7.726 7.726z" fill="#544e55" data-original="#544E55"/></g></g></g> </svg>
